<svg width="41" height="21" viewBox="0 0 41 21" fill="none" xmlns="http://www.w3.org/2000/svg">
<path d="M1 10.5C8.47292 5.20668 12.8434 3.06431 15.5 2.38235M23 1C18.8682 6.50903 21.3754 0.874145 15.5 2.38235M15.5 2.38235C20.6667 10.4216 28.9 24.9 20.5 18.5C10 10.5 21 7 25 9C28.2 10.6 26.3333 7.66667 25 6L29.5 12.5C28.6667 10.5 27.3 6.8 28.5 8C29.7 9.2 29.6667 8.5 29.5 8C29.8333 9.16667 30.6 11.3 31 10.5C31.5 9.5 29.5 5.5 31 7.5C32.5 9.5 34 14.5 33.5 11C33 7.5 34.5 8 35 9.5C35.5 11 36 11 36 9.5C36 8 36.5 7.5 37.5 10C38.3 12 38.8333 9.5 39 8C39 10.3333 39.3 14.5 40.5 12.5M40 5C39.5 5.5 38.6667 5.83333 38.5 6M23 4C24 4.5 25 4.9 25 4.5" stroke="white" stroke-width="0.4"/>
</svg>
